<?xml version="1.0"?>
<svg xmlns="http://www.w3.org/2000/svg" xmlns:xlink="http://www.w3.org/1999/xlink" version="1.1" id="Capa_1" x="0px" y="0px" viewBox="0 0 512 512" style="enable-background:new 0 0 512 512;" xml:space="preserve" width="512px" height="512px" class=""><g><path style="fill:#0F6FB1" d="M392,15v273.199L333.5,467c0,8.399-6.599,15-15,15H15c-8.401,0-15-6.601-15-15V120L120,0h257  C385.401,0,392,6.599,392,15z" data-original="#E5E5E5" class="active-path" data-old_color="#1071B3"/><path style="fill:#104E7F" d="M120,105V0h-2.578c-12.012,0-23.32,4.688-31.816,13.184L13.184,85.605  C4.688,94.102,0,105.41,0,117.422V120h105C113.291,120,120,113.291,120,105z" data-original="#C8C6CD" class="" data-old_color="#104F80"/><path style="fill:#126199" d="M392,15v273.199L333.5,467c0,8.399-6.599,15-15,15H196V0h181C385.401,0,392,6.599,392,15z" data-original="#D9D9D9" class="" data-old_color="#12629A"/><g>
	<path style="fill:#104E7F" d="M302,347c0,8.399-6.599,15-15,15H105c-8.401,0-15-6.601-15-15c0-8.401,6.599-15,15-15h182   C295.401,332,302,338.599,302,347z" data-original="#C8C6CD" class="" data-old_color="#104F80"/>
	<path style="fill:#104E7F" d="M303.199,407c0,8.399-6.899,15-15,15H105c-8.401,0-15-6.601-15-15c0-8.401,6.599-15,15-15h183.199   C296.3,392,303.199,398.599,303.199,407z" data-original="#C8C6CD" class="" data-old_color="#104F80"/>
</g><path style="fill:#0A4F7E" d="M196,150c-57.9,0-106,48.1-106,106v31c0,8.401,6.599,15,15,15h182c8.401,0,15-6.599,15-15v-31  C302,198.1,253.9,150,196,150z" data-original="#1689FC" class="" data-old_color="#0A4E7C"/><path style="fill:#124E78" d="M302,256v31c0,8.401-6.599,15-15,15h-91V150C253.9,150,302,198.1,302,256z" data-original="#136EF1" class="" data-old_color="#136EF1"/><path style="fill:#12598A" d="M196,60c-32.999,0-61,27.001-61,60s28.001,60,61,60s61-27.001,61-60S228.999,60,196,60z" data-original="#17ACE8" class="" data-old_color="#135A8C"/><path style="fill:#0A4F7E" d="M257,120c0,32.999-28.001,60-61,60V60C228.999,60,257,87.001,257,120z" data-original="#1689FC" class="" data-old_color="#0A4E7C"/><g>
	<path style="fill:#194967" d="M287,362h-91v-30h91c8.401,0,15,6.599,15,15C302,355.399,295.401,362,287,362z" data-original="#AEADB3" class="" data-old_color="#1A4A68"/>
	<path style="fill:#194967" d="M303.199,407c0,8.399-6.899,15-15,15H196v-30h92.199C296.3,392,303.199,398.599,303.199,407z" data-original="#AEADB3" class="" data-old_color="#1A4A68"/>
</g><path style="fill:#12598A" d="M392,272c-66.301,0-120,53.699-120,120s53.699,120,120,120s120-53.699,120-120S458.301,272,392,272z" data-original="#19DEC1" class="" data-old_color="#19DEC1"/><path style="fill:#0E4871" d="M512,392c0,66.301-53.699,120-120,120V272C458.301,272,512,325.699,512,392z" data-original="#17CEB4" class="" data-old_color="#17CEB4"/><path style="fill:#0F6FB1" d="M447.499,372.499L392,428l-4.501,4.499C384.8,435.5,380.9,437,377,437s-7.8-1.5-10.499-4.501l-30-30  c-6-5.7-6-15.298,0-20.999c5.7-6,15.298-6,20.999,0l19.5,19.199l15-15l34.501-34.199c5.7-6,15.298-6,20.999,0  C453.5,357.201,453.5,366.799,447.499,372.499z" data-original="#E5E5E5" class="active-path" data-old_color="#1071B3"/><path style="fill:#126199" d="M447.499,372.499L392,428v-42.301l34.501-34.199c5.7-6,15.298-6,20.999,0  C453.5,357.201,453.5,366.799,447.499,372.499z" data-original="#D9D9D9" class="" data-old_color="#12629A"/></g> </svg>
